<mxfile host="www.draw.io" modified="2019-10-28T15:03:13.861Z" agent="Mozilla/5.0 (X11; Linux x86_64; rv:70.0) Gecko/20100101 Firefox/70.0" etag="AfIwUWTB8U4Vb_zCd9LC" version="12.1.7" type="github" pages="1">
  <diagram id="6DvPLgcTya2OOKR3TS7B" name="Page-1">
    <mxGraphModel dx="1088" dy="729" grid="1" gridSize="10" guides="1" tooltips="1" connect="1" arrows="1" fold="1" page="1" pageScale="1" pageWidth="850" pageHeight="1100" math="0" shadow="0">
      <root>
        <mxCell id="0"/>
        <mxCell id="1" parent="0"/>
        <mxCell id="eeYAZnwzY8Feb9P3gQT8-12" value="Development" style="ellipse;whiteSpace=wrap;html=1;align=center;container=1;recursiveResize=0;treeFolding=1;treeMoving=1;fillColor=#d5e8d4;strokeColor=#82b366;" parent="1" vertex="1">
          <mxGeometry x="377" y="50" width="100" height="40" as="geometry"/>
        </mxCell>
        <mxCell id="eeYAZnwzY8Feb9P3gQT8-13" value="Code" style="whiteSpace=wrap;html=1;rounded=1;arcSize=50;align=center;verticalAlign=middle;container=1;recursiveResize=0;strokeWidth=1;autosize=1;spacing=4;treeFolding=1;treeMoving=1;" parent="1" vertex="1">
          <mxGeometry x="297" y="115" width="70" height="30" as="geometry"/>
        </mxCell>
        <mxCell id="eeYAZnwzY8Feb9P3gQT8-14" value="" style="edgeStyle=orthogonalEdgeStyle;startArrow=none;endArrow=none;segment=10;entryX=0.5;entryY=0;entryDx=0;entryDy=0;" parent="1" source="eeYAZnwzY8Feb9P3gQT8-12" target="eeYAZnwzY8Feb9P3gQT8-13" edge="1">
          <mxGeometry relative="1" as="geometry">
            <mxPoint x="142" y="150" as="sourcePoint"/>
          </mxGeometry>
        </mxCell>
        <mxCell id="eeYAZnwzY8Feb9P3gQT8-18" value="QA" style="whiteSpace=wrap;html=1;rounded=1;arcSize=50;align=center;verticalAlign=middle;container=1;recursiveResize=0;strokeWidth=1;autosize=1;spacing=4;treeFolding=1;treeMoving=1;" parent="1" vertex="1">
          <mxGeometry x="397" y="115" width="60" height="30" as="geometry"/>
        </mxCell>
        <mxCell id="eeYAZnwzY8Feb9P3gQT8-19" value="" style="edgeStyle=orthogonalEdgeStyle;startArrow=none;endArrow=none;segment=10;exitX=0.5;exitY=1;exitDx=0;exitDy=0;entryX=0.5;entryY=0;entryDx=0;entryDy=0;" parent="1" source="eeYAZnwzY8Feb9P3gQT8-12" target="eeYAZnwzY8Feb9P3gQT8-18" edge="1">
          <mxGeometry relative="1" as="geometry">
            <mxPoint x="142" y="190" as="sourcePoint"/>
          </mxGeometry>
        </mxCell>
        <mxCell id="eeYAZnwzY8Feb9P3gQT8-21" value="Design/UX" style="whiteSpace=wrap;html=1;rounded=1;arcSize=50;align=center;verticalAlign=middle;container=1;recursiveResize=0;strokeWidth=1;autosize=1;spacing=4;treeFolding=1;treeMoving=1;" parent="1" vertex="1">
          <mxGeometry x="477" y="115" width="100" height="30" as="geometry"/>
        </mxCell>
        <mxCell id="eeYAZnwzY8Feb9P3gQT8-22" value="" style="edgeStyle=orthogonalEdgeStyle;startArrow=none;endArrow=none;segment=10;exitX=1;exitY=0.5;exitDx=0;exitDy=0;entryX=0.5;entryY=0;entryDx=0;entryDy=0;" parent="1" source="eeYAZnwzY8Feb9P3gQT8-12" target="eeYAZnwzY8Feb9P3gQT8-21" edge="1">
          <mxGeometry relative="1" as="geometry">
            <mxPoint x="767" y="20" as="sourcePoint"/>
          </mxGeometry>
        </mxCell>
        <mxCell id="eeYAZnwzY8Feb9P3gQT8-23" value="Documentation" style="ellipse;whiteSpace=wrap;html=1;align=center;container=1;recursiveResize=0;treeFolding=1;treeMoving=1;fillColor=#d5e8d4;strokeColor=#82b366;" parent="1" vertex="1">
          <mxGeometry x="381.5" y="190" width="100" height="40" as="geometry"/>
        </mxCell>
        <mxCell id="eeYAZnwzY8Feb9P3gQT8-24" value="Offline help" style="whiteSpace=wrap;html=1;rounded=1;arcSize=50;align=center;verticalAlign=middle;container=1;recursiveResize=0;strokeWidth=1;autosize=1;spacing=4;treeFolding=1;treeMoving=1;" parent="1" vertex="1">
          <mxGeometry x="466.5" y="240" width="100" height="30" as="geometry"/>
        </mxCell>
        <mxCell id="eeYAZnwzY8Feb9P3gQT8-25" value="" style="edgeStyle=orthogonalEdgeStyle;startArrow=none;endArrow=none;segment=10;exitX=1;exitY=0.5;exitDx=0;exitDy=0;entryX=0.5;entryY=0;entryDx=0;entryDy=0;" parent="1" source="eeYAZnwzY8Feb9P3gQT8-23" target="eeYAZnwzY8Feb9P3gQT8-24" edge="1">
          <mxGeometry relative="1" as="geometry">
            <mxPoint x="300.5" y="290" as="sourcePoint"/>
          </mxGeometry>
        </mxCell>
        <UserObject label="Online help" link="https://help.libreoffice.org/" id="eeYAZnwzY8Feb9P3gQT8-27">
          <mxCell style="whiteSpace=wrap;html=1;rounded=1;arcSize=50;align=center;verticalAlign=middle;container=1;recursiveResize=0;strokeWidth=3;autosize=1;spacing=4;treeFolding=1;treeMoving=1;direction=west;" parent="1" vertex="1">
            <mxGeometry x="306.5" y="240" width="100" height="30" as="geometry"/>
          </mxCell>
        </UserObject>
        <mxCell id="eeYAZnwzY8Feb9P3gQT8-28" value="" style="edgeStyle=orthogonalEdgeStyle;startArrow=none;endArrow=none;segment=10;entryX=0;entryY=0.5;entryDx=0;entryDy=0;exitX=0.6;exitY=1;exitDx=0;exitDy=0;exitPerimeter=0;" parent="1" source="eeYAZnwzY8Feb9P3gQT8-27" target="eeYAZnwzY8Feb9P3gQT8-23" edge="1">
          <mxGeometry relative="1" as="geometry">
            <mxPoint x="246.5" y="180" as="sourcePoint"/>
            <mxPoint x="316.5" y="253" as="targetPoint"/>
          </mxGeometry>
        </mxCell>
        <mxCell id="eeYAZnwzY8Feb9P3gQT8-39" value="Product" style="ellipse;whiteSpace=wrap;html=1;align=center;container=1;recursiveResize=0;treeFolding=1;treeMoving=1;fillColor=#d5e8d4;strokeColor=#82b366;" parent="1" vertex="1">
          <mxGeometry x="385" y="318.5" width="100" height="40" as="geometry"/>
        </mxCell>
        <UserObject label="Download" link="https://www.libreoffice.org/download/download/" id="eeYAZnwzY8Feb9P3gQT8-44">
          <mxCell style="whiteSpace=wrap;html=1;rounded=1;arcSize=50;align=center;verticalAlign=middle;container=1;recursiveResize=0;strokeWidth=3;autosize=1;spacing=4;treeFolding=1;treeMoving=1;" parent="1" vertex="1">
            <mxGeometry x="305" y="376.5" width="100" height="30" as="geometry"/>
          </mxCell>
        </UserObject>
        <mxCell id="eeYAZnwzY8Feb9P3gQT8-45" value="" style="edgeStyle=orthogonalEdgeStyle;startArrow=none;endArrow=none;segment=10;exitX=0.5;exitY=0;exitDx=0;exitDy=0;entryX=0;entryY=0.5;entryDx=0;entryDy=0;" parent="1" source="eeYAZnwzY8Feb9P3gQT8-44" target="eeYAZnwzY8Feb9P3gQT8-39" edge="1">
          <mxGeometry relative="1" as="geometry">
            <mxPoint x="279" y="418.5" as="sourcePoint"/>
          </mxGeometry>
        </mxCell>
        <mxCell id="igbup8ct0ObCzZ-WfE6h-11" style="edgeStyle=orthogonalEdgeStyle;rounded=0;orthogonalLoop=1;jettySize=auto;html=1;exitX=0.5;exitY=0;exitDx=0;exitDy=0;entryX=0;entryY=0.5;entryDx=0;entryDy=0;endArrow=none;endFill=0;dashed=1;" edge="1" parent="1" source="eeYAZnwzY8Feb9P3gQT8-46" target="igbup8ct0ObCzZ-WfE6h-7">
          <mxGeometry relative="1" as="geometry">
            <Array as="points">
              <mxPoint x="432" y="490"/>
              <mxPoint x="170" y="490"/>
              <mxPoint x="170" y="302"/>
            </Array>
          </mxGeometry>
        </mxCell>
        <mxCell id="eeYAZnwzY8Feb9P3gQT8-46" value="Community" style="ellipse;whiteSpace=wrap;html=1;align=center;container=1;recursiveResize=0;treeFolding=1;treeMoving=1;fillColor=#d5e8d4;strokeColor=#82b366;" parent="1" vertex="1">
          <mxGeometry x="381.5" y="506.5" width="100" height="40" as="geometry"/>
        </mxCell>
        <UserObject label="Conferences/&lt;br&gt;Meetings" link="https://libocon.org/" id="eeYAZnwzY8Feb9P3gQT8-47">
          <mxCell style="whiteSpace=wrap;html=1;rounded=1;arcSize=50;align=center;verticalAlign=middle;container=1;recursiveResize=0;strokeWidth=3;autosize=1;spacing=4;treeFolding=1;treeMoving=1;" parent="1" vertex="1">
            <mxGeometry x="452.5" y="562.5" width="110" height="40" as="geometry"/>
          </mxCell>
        </UserObject>
        <mxCell id="eeYAZnwzY8Feb9P3gQT8-48" value="" style="edgeStyle=orthogonalEdgeStyle;startArrow=none;endArrow=none;segment=10;exitX=1;exitY=0.5;exitDx=0;exitDy=0;entryX=0.5;entryY=0;entryDx=0;entryDy=0;" parent="1" source="eeYAZnwzY8Feb9P3gQT8-46" target="eeYAZnwzY8Feb9P3gQT8-47" edge="1">
          <mxGeometry relative="1" as="geometry">
            <mxPoint x="431.5" y="609.5" as="sourcePoint"/>
          </mxGeometry>
        </mxCell>
        <UserObject label="Wiki" link="https://wiki.documentfoundation.org/" id="eeYAZnwzY8Feb9P3gQT8-51">
          <mxCell style="whiteSpace=wrap;html=1;rounded=1;arcSize=50;align=center;verticalAlign=middle;container=1;recursiveResize=0;strokeWidth=3;autosize=1;spacing=4;treeFolding=1;treeMoving=1;" parent="1" vertex="1">
            <mxGeometry x="301.5" y="559" width="94" height="47" as="geometry"/>
          </mxCell>
        </UserObject>
        <mxCell id="eeYAZnwzY8Feb9P3gQT8-52" value="" style="edgeStyle=orthogonalEdgeStyle;startArrow=none;endArrow=none;segment=10;entryX=0;entryY=0.5;entryDx=0;entryDy=0;exitX=0.5;exitY=0;exitDx=0;exitDy=0;" parent="1" source="eeYAZnwzY8Feb9P3gQT8-51" target="eeYAZnwzY8Feb9P3gQT8-46" edge="1">
          <mxGeometry relative="1" as="geometry">
            <mxPoint x="311.5" y="546.5" as="sourcePoint"/>
          </mxGeometry>
        </mxCell>
        <mxCell id="eeYAZnwzY8Feb9P3gQT8-55" value="Support" style="ellipse;whiteSpace=wrap;html=1;align=center;container=1;recursiveResize=0;treeFolding=1;treeMoving=1;fillColor=#d5e8d4;strokeColor=#82b366;" parent="1" vertex="1">
          <mxGeometry x="131.5" y="506.5" width="100" height="40" as="geometry"/>
        </mxCell>
        <mxCell id="eeYAZnwzY8Feb9P3gQT8-56" value="" style="edgeStyle=orthogonalEdgeStyle;startArrow=none;endArrow=none;segment=10;entryX=1;entryY=0.5;entryDx=0;entryDy=0;exitX=0;exitY=0.5;exitDx=0;exitDy=0;fillColor=#f8cecc;strokeColor=#b85450;" parent="1" source="eeYAZnwzY8Feb9P3gQT8-51" target="eeYAZnwzY8Feb9P3gQT8-55" edge="1">
          <mxGeometry relative="1" as="geometry">
            <mxPoint x="358.5" y="569.5" as="sourcePoint"/>
            <mxPoint x="391.5" y="536.5" as="targetPoint"/>
          </mxGeometry>
        </mxCell>
        <UserObject label="ask.libreoffice.org" link="http://ask.libreoffice.org" id="eeYAZnwzY8Feb9P3gQT8-57">
          <mxCell style="whiteSpace=wrap;html=1;rounded=1;arcSize=50;align=center;verticalAlign=middle;container=1;recursiveResize=0;strokeWidth=3;autosize=1;spacing=4;treeFolding=1;treeMoving=1;" parent="1" vertex="1">
            <mxGeometry x="42.5" y="561.5" width="150" height="30" as="geometry"/>
          </mxCell>
        </UserObject>
        <mxCell id="eeYAZnwzY8Feb9P3gQT8-58" value="" style="edgeStyle=orthogonalEdgeStyle;startArrow=none;endArrow=none;segment=10;exitX=0;exitY=0.5;exitDx=0;exitDy=0;" parent="1" source="eeYAZnwzY8Feb9P3gQT8-55" target="eeYAZnwzY8Feb9P3gQT8-57" edge="1">
          <mxGeometry relative="1" as="geometry">
            <mxPoint x="60.5" y="609.5" as="sourcePoint"/>
          </mxGeometry>
        </mxCell>
        <UserObject label="TDF" link="https://www.documentfoundation.org/" id="eeYAZnwzY8Feb9P3gQT8-59">
          <mxCell style="whiteSpace=wrap;html=1;rounded=1;arcSize=50;align=center;verticalAlign=middle;container=1;recursiveResize=0;strokeWidth=3;autosize=1;spacing=4;treeFolding=1;treeMoving=1;" parent="1" vertex="1">
            <mxGeometry x="535" y="376.5" width="60" height="30" as="geometry"/>
          </mxCell>
        </UserObject>
        <mxCell id="eeYAZnwzY8Feb9P3gQT8-60" value="" style="edgeStyle=entityRelationEdgeStyle;startArrow=none;endArrow=none;segment=10;curved=1;exitX=1;exitY=0.5;exitDx=0;exitDy=0;" parent="1" source="eeYAZnwzY8Feb9P3gQT8-39" target="eeYAZnwzY8Feb9P3gQT8-59" edge="1">
          <mxGeometry relative="1" as="geometry">
            <mxPoint x="379" y="426.5" as="sourcePoint"/>
          </mxGeometry>
        </mxCell>
        <mxCell id="eeYAZnwzY8Feb9P3gQT8-65" style="edgeStyle=orthogonalEdgeStyle;rounded=0;orthogonalLoop=1;jettySize=auto;html=1;exitX=0.5;exitY=1;exitDx=0;exitDy=0;entryX=0;entryY=0.5;entryDx=0;entryDy=0;curved=1;fillColor=#f8cecc;strokeColor=#b85450;endArrow=none;endFill=0;" parent="1" source="eeYAZnwzY8Feb9P3gQT8-61" target="eeYAZnwzY8Feb9P3gQT8-63" edge="1">
          <mxGeometry relative="1" as="geometry"/>
        </mxCell>
        <mxCell id="eeYAZnwzY8Feb9P3gQT8-61" value="Localization" style="whiteSpace=wrap;html=1;rounded=1;arcSize=50;align=center;verticalAlign=middle;container=1;recursiveResize=0;strokeWidth=1;autosize=1;spacing=4;treeFolding=1;treeMoving=1;" parent="1" vertex="1">
          <mxGeometry x="585" y="113" width="110" height="30" as="geometry"/>
        </mxCell>
        <mxCell id="eeYAZnwzY8Feb9P3gQT8-62" value="" style="edgeStyle=orthogonalEdgeStyle;startArrow=none;endArrow=none;segment=10;" parent="1" source="eeYAZnwzY8Feb9P3gQT8-12" target="eeYAZnwzY8Feb9P3gQT8-61" edge="1">
          <mxGeometry relative="1" as="geometry">
            <mxPoint x="564" y="155" as="sourcePoint"/>
          </mxGeometry>
        </mxCell>
        <mxCell id="eeYAZnwzY8Feb9P3gQT8-63" value="Native Language Project" style="whiteSpace=wrap;html=1;rounded=1;arcSize=50;align=center;verticalAlign=middle;container=1;recursiveResize=0;strokeWidth=1;autosize=1;spacing=4;treeFolding=1;treeMoving=1;" parent="1" vertex="1">
          <mxGeometry x="315" y="441.5" width="180" height="30" as="geometry"/>
        </mxCell>
        <mxCell id="eeYAZnwzY8Feb9P3gQT8-64" value="" style="edgeStyle=orthogonalEdgeStyle;startArrow=none;endArrow=none;segment=10;exitX=0.5;exitY=1;exitDx=0;exitDy=0;entryX=0.5;entryY=0;entryDx=0;entryDy=0;" parent="1" source="eeYAZnwzY8Feb9P3gQT8-39" target="eeYAZnwzY8Feb9P3gQT8-63" edge="1">
          <mxGeometry relative="1" as="geometry">
            <mxPoint x="373" y="566.5" as="sourcePoint"/>
          </mxGeometry>
        </mxCell>
        <mxCell id="eeYAZnwzY8Feb9P3gQT8-66" value="" style="endArrow=none;html=1;entryX=1;entryY=1;entryDx=0;entryDy=0;dashed=1;fillColor=#f5f5f5;strokeColor=#666666;" parent="1" source="eeYAZnwzY8Feb9P3gQT8-23" target="eeYAZnwzY8Feb9P3gQT8-12" edge="1">
          <mxGeometry width="50" height="50" relative="1" as="geometry">
            <mxPoint x="191" y="520" as="sourcePoint"/>
            <mxPoint x="241" y="470" as="targetPoint"/>
            <Array as="points">
              <mxPoint x="462" y="150"/>
            </Array>
          </mxGeometry>
        </mxCell>
        <mxCell id="eeYAZnwzY8Feb9P3gQT8-67" value="Infra" style="whiteSpace=wrap;html=1;rounded=1;arcSize=50;align=center;verticalAlign=middle;container=1;recursiveResize=0;strokeWidth=1;autosize=1;spacing=4;treeFolding=1;treeMoving=1;" parent="1" vertex="1">
          <mxGeometry x="445" y="376.5" width="60" height="30" as="geometry"/>
        </mxCell>
        <mxCell id="eeYAZnwzY8Feb9P3gQT8-68" value="" style="edgeStyle=orthogonalEdgeStyle;startArrow=none;endArrow=none;segment=10;exitX=0.5;exitY=1;exitDx=0;exitDy=0;" parent="1" source="eeYAZnwzY8Feb9P3gQT8-39" target="eeYAZnwzY8Feb9P3gQT8-67" edge="1">
          <mxGeometry relative="1" as="geometry">
            <mxPoint x="365" y="314.5" as="sourcePoint"/>
          </mxGeometry>
        </mxCell>
        <UserObject label="Branding" link="https://wiki.documentfoundation.org/Marketing/Branding" id="eeYAZnwzY8Feb9P3gQT8-69">
          <mxCell style="whiteSpace=wrap;html=1;rounded=1;arcSize=50;align=center;verticalAlign=middle;container=1;recursiveResize=0;strokeWidth=3;autosize=1;spacing=4;treeFolding=1;treeMoving=1;" parent="1" vertex="1">
            <mxGeometry x="617.5" y="574.5" width="90" height="30" as="geometry"/>
          </mxCell>
        </UserObject>
        <mxCell id="eeYAZnwzY8Feb9P3gQT8-70" value="" style="edgeStyle=orthogonalEdgeStyle;startArrow=none;endArrow=none;segment=10;curved=1;exitX=0.5;exitY=1;exitDx=0;exitDy=0;fillColor=#f8cecc;strokeColor=#b85450;entryX=1.007;entryY=0.648;entryDx=0;entryDy=0;entryPerimeter=0;" parent="1" source="eeYAZnwzY8Feb9P3gQT8-21" target="eeYAZnwzY8Feb9P3gQT8-69" edge="1">
          <mxGeometry relative="1" as="geometry">
            <mxPoint x="-4" y="490" as="sourcePoint"/>
            <Array as="points">
              <mxPoint x="527" y="220"/>
              <mxPoint x="750" y="220"/>
              <mxPoint x="750" y="594"/>
            </Array>
          </mxGeometry>
        </mxCell>
        <mxCell id="eeYAZnwzY8Feb9P3gQT8-72" style="edgeStyle=orthogonalEdgeStyle;rounded=0;orthogonalLoop=1;jettySize=auto;html=1;exitX=0.5;exitY=1;exitDx=0;exitDy=0;entryX=0.5;entryY=0;entryDx=0;entryDy=0;endArrow=none;endFill=0;" parent="1" source="eeYAZnwzY8Feb9P3gQT8-71" target="eeYAZnwzY8Feb9P3gQT8-69" edge="1">
          <mxGeometry relative="1" as="geometry"/>
        </mxCell>
        <UserObject label="Marketing" link="https://wiki.documentfoundation.org/Marketing" id="eeYAZnwzY8Feb9P3gQT8-71">
          <mxCell style="ellipse;whiteSpace=wrap;html=1;align=center;container=1;recursiveResize=0;treeFolding=1;treeMoving=1;fillColor=#d5e8d4;strokeColor=#82b366;" parent="1" vertex="1">
            <mxGeometry x="612.5" y="506.5" width="100" height="40" as="geometry"/>
          </mxCell>
        </UserObject>
        <mxCell id="eeYAZnwzY8Feb9P3gQT8-73" value="About&lt;br&gt;&lt;div&gt;Impressum&lt;/div&gt;&lt;div&gt;Legal&lt;br&gt;&lt;/div&gt;" style="whiteSpace=wrap;html=1;rounded=1;arcSize=50;align=center;verticalAlign=middle;container=1;recursiveResize=0;strokeWidth=1;autosize=1;spacing=4;treeFolding=1;treeMoving=1;" parent="1" vertex="1">
          <mxGeometry x="521" y="301.5" width="100" height="60" as="geometry"/>
        </mxCell>
        <mxCell id="eeYAZnwzY8Feb9P3gQT8-74" value="" style="edgeStyle=entityRelationEdgeStyle;startArrow=none;endArrow=none;segment=10;curved=1;exitX=1;exitY=0.5;exitDx=0;exitDy=0;" parent="1" source="eeYAZnwzY8Feb9P3gQT8-39" target="eeYAZnwzY8Feb9P3gQT8-73" edge="1">
          <mxGeometry relative="1" as="geometry">
            <mxPoint x="495" y="358.5" as="sourcePoint"/>
          </mxGeometry>
        </mxCell>
        <UserObject label="&lt;div&gt;whatcanIdo&lt;/div&gt;" link="https://whatcanidoforlibreoffice.org/" id="QoF9Bd-ds1oIJ_mmsuoO-1">
          <mxCell style="whiteSpace=wrap;html=1;rounded=1;arcSize=50;align=center;verticalAlign=middle;container=1;recursiveResize=0;strokeWidth=3;autosize=1;spacing=4;treeFolding=1;treeMoving=1;" parent="1" vertex="1">
            <mxGeometry x="312" y="620" width="110" height="30" as="geometry"/>
          </mxCell>
        </UserObject>
        <mxCell id="QoF9Bd-ds1oIJ_mmsuoO-2" value="" style="edgeStyle=orthogonalEdgeStyle;startArrow=none;endArrow=none;segment=10;exitX=0.5;exitY=1;exitDx=0;exitDy=0;entryX=1;entryY=0.5;entryDx=0;entryDy=0;" parent="1" source="eeYAZnwzY8Feb9P3gQT8-46" target="QoF9Bd-ds1oIJ_mmsuoO-1" edge="1">
          <mxGeometry relative="1" as="geometry">
            <mxPoint x="245.5" y="520" as="sourcePoint"/>
          </mxGeometry>
        </mxCell>
        <UserObject label="Gerrit" link="https://gerrit.libreoffice.org/#/dashboard/self" id="QoF9Bd-ds1oIJ_mmsuoO-3">
          <mxCell style="whiteSpace=wrap;html=1;rounded=1;arcSize=50;align=center;verticalAlign=middle;container=1;recursiveResize=0;strokeWidth=3;autosize=1;spacing=4;treeFolding=1;treeMoving=1;" parent="1" vertex="1">
            <mxGeometry x="170" y="115" width="70" height="30" as="geometry"/>
          </mxCell>
        </UserObject>
        <mxCell id="QoF9Bd-ds1oIJ_mmsuoO-4" value="" style="edgeStyle=orthogonalEdgeStyle;startArrow=none;endArrow=none;segment=10;exitX=0;exitY=0.5;exitDx=0;exitDy=0;" parent="1" source="eeYAZnwzY8Feb9P3gQT8-13" target="QoF9Bd-ds1oIJ_mmsuoO-3" edge="1">
          <mxGeometry relative="1" as="geometry">
            <mxPoint x="130" y="170" as="sourcePoint"/>
          </mxGeometry>
        </mxCell>
        <UserObject label="Bugzilla" link="https://bugs.documentfoundation.org/" id="QoF9Bd-ds1oIJ_mmsuoO-8">
          <mxCell style="whiteSpace=wrap;html=1;rounded=1;arcSize=50;align=center;verticalAlign=middle;container=1;recursiveResize=0;strokeWidth=3;autosize=1;spacing=4;treeFolding=1;treeMoving=1;" parent="1" vertex="1">
            <mxGeometry x="160" y="175" width="90" height="30" as="geometry"/>
          </mxCell>
        </UserObject>
        <mxCell id="QoF9Bd-ds1oIJ_mmsuoO-9" value="" style="edgeStyle=orthogonalEdgeStyle;startArrow=none;endArrow=none;segment=10;exitX=0.5;exitY=1;exitDx=0;exitDy=0;" parent="1" source="eeYAZnwzY8Feb9P3gQT8-18" target="QoF9Bd-ds1oIJ_mmsuoO-8" edge="1">
          <mxGeometry relative="1" as="geometry">
            <mxPoint x="129" y="204" as="sourcePoint"/>
          </mxGeometry>
        </mxCell>
        <UserObject label="&lt;div&gt;Open Grok&lt;/div&gt;" link="https://opengrok.libreoffice.org/" id="QoF9Bd-ds1oIJ_mmsuoO-10">
          <mxCell style="whiteSpace=wrap;html=1;rounded=1;arcSize=50;align=center;verticalAlign=middle;container=1;recursiveResize=0;strokeWidth=3;autosize=1;spacing=4;treeFolding=1;treeMoving=1;" parent="1" vertex="1">
            <mxGeometry x="155" y="68" width="100" height="30" as="geometry"/>
          </mxCell>
        </UserObject>
        <mxCell id="QoF9Bd-ds1oIJ_mmsuoO-11" value="" style="edgeStyle=orthogonalEdgeStyle;startArrow=none;endArrow=none;segment=10;exitX=0;exitY=0.5;exitDx=0;exitDy=0;" parent="1" source="eeYAZnwzY8Feb9P3gQT8-13" target="QoF9Bd-ds1oIJ_mmsuoO-10" edge="1">
          <mxGeometry relative="1" as="geometry">
            <mxPoint x="129" y="110" as="sourcePoint"/>
            <Array as="points">
              <mxPoint x="280" y="130"/>
              <mxPoint x="280" y="83"/>
            </Array>
          </mxGeometry>
        </mxCell>
        <UserObject label="&lt;div&gt;Document&lt;/div&gt;&lt;div&gt;Liberation&lt;/div&gt;" link="https://www.documentliberation.org/" id="QoF9Bd-ds1oIJ_mmsuoO-12">
          <mxCell style="whiteSpace=wrap;html=1;rounded=1;arcSize=50;align=center;verticalAlign=middle;container=1;recursiveResize=0;strokeWidth=3;autosize=1;spacing=4;treeFolding=1;treeMoving=1;" parent="1" vertex="1">
            <mxGeometry x="636" y="371.5" width="100" height="40" as="geometry"/>
          </mxCell>
        </UserObject>
        <mxCell id="QoF9Bd-ds1oIJ_mmsuoO-13" value="" style="edgeStyle=orthogonalEdgeStyle;startArrow=none;endArrow=none;segment=10;exitX=1;exitY=0.5;exitDx=0;exitDy=0;strokeWidth=3;" parent="1" source="eeYAZnwzY8Feb9P3gQT8-59" target="QoF9Bd-ds1oIJ_mmsuoO-12" edge="1">
          <mxGeometry relative="1" as="geometry">
            <mxPoint y="710" as="sourcePoint"/>
          </mxGeometry>
        </mxCell>
        <UserObject label="Github" link="https://github.com/libreoffice" id="igbup8ct0ObCzZ-WfE6h-1">
          <mxCell style="whiteSpace=wrap;html=1;rounded=1;arcSize=50;align=center;verticalAlign=middle;container=1;recursiveResize=0;strokeWidth=3;autosize=1;spacing=4;treeFolding=1;treeMoving=1;" vertex="1" parent="1">
            <mxGeometry x="275" y="34" width="80" height="30" as="geometry"/>
          </mxCell>
        </UserObject>
        <mxCell id="igbup8ct0ObCzZ-WfE6h-2" value="" style="edgeStyle=orthogonalEdgeStyle;startArrow=none;endArrow=none;segment=10;exitX=0.5;exitY=0;exitDx=0;exitDy=0;" edge="1" target="igbup8ct0ObCzZ-WfE6h-1" parent="1" source="eeYAZnwzY8Feb9P3gQT8-13">
          <mxGeometry relative="1" as="geometry">
            <mxPoint x="239" y="76" as="sourcePoint"/>
          </mxGeometry>
        </mxCell>
        <mxCell id="igbup8ct0ObCzZ-WfE6h-3" value="Weblate" style="whiteSpace=wrap;html=1;rounded=1;arcSize=50;align=center;verticalAlign=middle;container=1;recursiveResize=0;strokeWidth=1;autosize=1;spacing=4;treeFolding=1;treeMoving=1;" vertex="1" parent="1">
          <mxGeometry x="726" y="88" width="90" height="30" as="geometry"/>
        </mxCell>
        <mxCell id="igbup8ct0ObCzZ-WfE6h-4" value="" style="edgeStyle=entityRelationEdgeStyle;startArrow=none;endArrow=none;segment=10;curved=1;exitX=1;exitY=0.5;exitDx=0;exitDy=0;" edge="1" target="igbup8ct0ObCzZ-WfE6h-3" parent="1" source="eeYAZnwzY8Feb9P3gQT8-61">
          <mxGeometry relative="1" as="geometry">
            <mxPoint x="695" y="130" as="sourcePoint"/>
          </mxGeometry>
        </mxCell>
        <UserObject label="Pootle" link="https://translations.documentfoundation.org/" id="igbup8ct0ObCzZ-WfE6h-5">
          <mxCell style="whiteSpace=wrap;html=1;rounded=1;arcSize=50;align=center;verticalAlign=middle;container=1;recursiveResize=0;strokeWidth=3;autosize=1;spacing=4;treeFolding=1;treeMoving=1;" vertex="1" parent="1">
            <mxGeometry x="731" y="138" width="80" height="30" as="geometry"/>
          </mxCell>
        </UserObject>
        <mxCell id="igbup8ct0ObCzZ-WfE6h-6" value="" style="edgeStyle=entityRelationEdgeStyle;startArrow=none;endArrow=none;segment=10;curved=1;exitX=1;exitY=0.5;exitDx=0;exitDy=0;" edge="1" target="igbup8ct0ObCzZ-WfE6h-5" parent="1" source="eeYAZnwzY8Feb9P3gQT8-61">
          <mxGeometry relative="1" as="geometry">
            <mxPoint x="695" y="180" as="sourcePoint"/>
          </mxGeometry>
        </mxCell>
        <UserObject label="Blog(s)" link="https://blog.documentfoundation.org/" id="igbup8ct0ObCzZ-WfE6h-7">
          <mxCell style="whiteSpace=wrap;html=1;rounded=1;arcSize=50;align=center;verticalAlign=middle;container=1;recursiveResize=0;strokeWidth=3;autosize=1;spacing=4;treeFolding=1;treeMoving=1;dashed=1;" vertex="1" parent="1">
            <mxGeometry x="200" y="286.5" width="80" height="30" as="geometry"/>
          </mxCell>
        </UserObject>
        <mxCell id="igbup8ct0ObCzZ-WfE6h-8" value="" style="edgeStyle=orthogonalEdgeStyle;startArrow=none;endArrow=none;segment=10;exitX=0.5;exitY=0;exitDx=0;exitDy=0;dashed=1;" edge="1" target="igbup8ct0ObCzZ-WfE6h-7" parent="1" source="eeYAZnwzY8Feb9P3gQT8-39">
          <mxGeometry relative="1" as="geometry">
            <mxPoint x="165" y="342" as="sourcePoint"/>
          </mxGeometry>
        </mxCell>
        <UserObject label="Extension &amp;amp;&lt;br&gt;Templates" link="https://extensions.libreoffice.org/" id="igbup8ct0ObCzZ-WfE6h-9">
          <mxCell style="whiteSpace=wrap;html=1;rounded=1;arcSize=50;align=center;verticalAlign=middle;container=1;recursiveResize=0;strokeWidth=3;autosize=1;spacing=4;treeFolding=1;treeMoving=1;" vertex="1" parent="1">
            <mxGeometry x="181" y="332" width="110" height="40" as="geometry"/>
          </mxCell>
        </UserObject>
        <mxCell id="igbup8ct0ObCzZ-WfE6h-10" value="" style="edgeStyle=orthogonalEdgeStyle;startArrow=none;endArrow=none;segment=10;exitX=0;exitY=0.5;exitDx=0;exitDy=0;" edge="1" target="igbup8ct0ObCzZ-WfE6h-9" parent="1" source="eeYAZnwzY8Feb9P3gQT8-39">
          <mxGeometry relative="1" as="geometry">
            <mxPoint x="160" y="379" as="sourcePoint"/>
          </mxGeometry>
        </mxCell>
        <UserObject label="&lt;div&gt;DevCentral&lt;/div&gt;" link="https://devcentral.libreoffice.org/" id="igbup8ct0ObCzZ-WfE6h-12">
          <mxCell style="whiteSpace=wrap;html=1;rounded=1;arcSize=50;align=center;verticalAlign=middle;container=1;recursiveResize=0;strokeWidth=3;autosize=1;spacing=4;treeFolding=1;treeMoving=1;" vertex="1" parent="1">
            <mxGeometry x="271.5" y="175" width="110" height="30" as="geometry"/>
          </mxCell>
        </UserObject>
        <mxCell id="igbup8ct0ObCzZ-WfE6h-13" value="" style="edgeStyle=orthogonalEdgeStyle;startArrow=none;endArrow=none;segment=10;exitX=0.5;exitY=1;exitDx=0;exitDy=0;" edge="1" target="igbup8ct0ObCzZ-WfE6h-12" parent="1" source="eeYAZnwzY8Feb9P3gQT8-13">
          <mxGeometry relative="1" as="geometry">
            <mxPoint x="251" y="215" as="sourcePoint"/>
          </mxGeometry>
        </mxCell>
        <UserObject label="ODF Toolkit" link="https://odftoolkit.org/" id="igbup8ct0ObCzZ-WfE6h-14">
          <mxCell style="whiteSpace=wrap;html=1;rounded=1;arcSize=50;align=center;verticalAlign=middle;container=1;recursiveResize=0;strokeWidth=3;autosize=1;spacing=4;treeFolding=1;treeMoving=1;" vertex="1" parent="1">
            <mxGeometry x="626" y="426.5" width="110" height="30" as="geometry"/>
          </mxCell>
        </UserObject>
        <mxCell id="igbup8ct0ObCzZ-WfE6h-15" value="" style="edgeStyle=orthogonalEdgeStyle;startArrow=none;endArrow=none;segment=10;exitX=0.5;exitY=1;exitDx=0;exitDy=0;entryX=0;entryY=0.5;entryDx=0;entryDy=0;" edge="1" target="igbup8ct0ObCzZ-WfE6h-14" parent="1" source="eeYAZnwzY8Feb9P3gQT8-59">
          <mxGeometry relative="1" as="geometry">
            <mxPoint x="601" y="469" as="sourcePoint"/>
          </mxGeometry>
        </mxCell>
      </root>
    </mxGraphModel>
  </diagram>
</mxfile>
